<svg xmlns="http://www.w3.org/2000/svg" viewBox="0 0 1200 580" role="img" aria-labelledby="title desc"><title id="title">The Historical Time Portal</title><desc id="desc">Luminous golden mechanical time portal in a violet observatory beneath a star-filled sky.</desc><defs><linearGradient id="sky" x2="0" y2="1"><stop stop-color="#11112f"/><stop offset="1" stop-color="#754a8f"/></linearGradient><radialGradient id="glow"><stop stop-color="#fff8c5"/><stop offset=".35" stop-color="#a8ddff"/><stop offset=".75" stop-color="#7c59cb"/><stop offset="1" stop-color="#272354"/></radialGradient><filter id="light"><feGaussianBlur stdDeviation="22"/></filter><filter id="shadow"><feDropShadow dx="0" dy="6" stdDeviation="10" flood-color="#03031c" flood-opacity=".7"/></filter></defs><rect width="1200" height="580" fill="url(#sky)"/><g fill="#fff6d7"><circle cx="37" cy="21" r="2.5" opacity="0.9"/><circle cx="174" cy="94" r="0.9" opacity="0.5"/><circle cx="311" cy="167" r="0.9" opacity="0.5"/><circle cx="448" cy="240" r="0.9" opacity="0.5"/><circle cx="585" cy="313" r="0.9" opacity="0.5"/><circle cx="722" cy="386" r="0.9" opacity="0.9"/><circle cx="859" cy="9" r="0.9" opacity="0.5"/><circle cx="996" cy="82" r="2.5" opacity="0.5"/><circle cx="1133" cy="155" r="0.9" opacity="0.5"/><circle cx="80" cy="228" r="0.9" opacity="0.5"/><circle cx="217" cy="301" r="0.9" opacity="0.9"/><circle cx="354" cy="374" r="0.9" opacity="0.5"/><circle cx="491" cy="447" r="0.9" opacity="0.5"/><circle cx="628" cy="70" r="0.9" opacity="0.5"/><circle cx="765" cy="143" r="2.5" opacity="0.5"/><circle cx="902" cy="216" r="0.9" opacity="0.9"/><circle cx="1039" cy="289" r="0.9" opacity="0.5"/><circle cx="1176" cy="362" r="0.9" opacity="0.5"/><circle cx="123" cy="435" r="0.9" opacity="0.5"/><circle cx="260" cy="58" r="0.9" opacity="0.5"/><circle cx="397" cy="131" r="0.9" opacity="0.9"/><circle cx="534" cy="204" r="2.5" opacity="0.5"/><circle cx="671" cy="277" r="0.9" opacity="0.5"/><circle cx="808" cy="350" r="0.9" opacity="0.5"/><circle cx="945" cy="423" r="0.9" opacity="0.5"/><circle cx="1082" cy="46" r="0.9" opacity="0.9"/><circle cx="29" cy="119" r="0.9" opacity="0.5"/><circle cx="166" cy="192" r="0.9" opacity="0.5"/><circle cx="303" cy="265" r="2.5" opacity="0.5"/><circle cx="440" cy="338" r="0.9" opacity="0.5"/><circle cx="577" cy="411" r="0.9" opacity="0.9"/><circle cx="714" cy="34" r="0.9" opacity="0.5"/><circle cx="851" cy="107" r="0.9" opacity="0.5"/><circle cx="988" cy="180" r="0.9" opacity="0.5"/><circle cx="1125" cy="253" r="0.9" opacity="0.5"/><circle cx="72" cy="326" r="2.5" opacity="0.9"/><circle cx="209" cy="399" r="0.9" opacity="0.5"/><circle cx="346" cy="22" r="0.9" opacity="0.5"/><circle cx="483" cy="95" r="0.9" opacity="0.5"/><circle cx="620" cy="168" r="0.9" opacity="0.5"/><circle cx="757" cy="241" r="0.9" opacity="0.9"/><circle cx="894" cy="314" r="0.9" opacity="0.5"/><circle cx="1031" cy="387" r="2.5" opacity="0.5"/><circle cx="1168" cy="10" r="0.9" opacity="0.5"/><circle cx="115" cy="83" r="0.9" opacity="0.5"/><circle cx="252" cy="156" r="0.9" opacity="0.9"/><circle cx="389" cy="229" r="0.9" opacity="0.5"/><circle cx="526" cy="302" r="0.9" opacity="0.5"/><circle cx="663" cy="375" r="0.9" opacity="0.5"/><circle cx="800" cy="448" r="2.5" opacity="0.5"/><circle cx="937" cy="71" r="0.9" opacity="0.9"/><circle cx="1074" cy="144" r="0.9" opacity="0.5"/><circle cx="21" cy="217" r="0.9" opacity="0.5"/><circle cx="158" cy="290" r="0.9" opacity="0.5"/><circle cx="295" cy="363" r="0.9" opacity="0.5"/><circle cx="432" cy="436" r="0.9" opacity="0.9"/><circle cx="569" cy="59" r="2.5" opacity="0.5"/><circle cx="706" cy="132" r="0.9" opacity="0.5"/><circle cx="843" cy="205" r="0.9" opacity="0.5"/><circle cx="980" cy="278" r="0.9" opacity="0.5"/><circle cx="1117" cy="351" r="0.9" opacity="0.9"/><circle cx="64" cy="424" r="0.9" opacity="0.5"/><circle cx="201" cy="47" r="0.9" opacity="0.5"/><circle cx="338" cy="120" r="2.5" opacity="0.5"/><circle cx="475" cy="193" r="0.9" opacity="0.5"/><circle cx="612" cy="266" r="0.9" opacity="0.9"/><circle cx="749" cy="339" r="0.9" opacity="0.5"/><circle cx="886" cy="412" r="0.9" opacity="0.5"/><circle cx="1023" cy="35" r="0.9" opacity="0.5"/><circle cx="1160" cy="108" r="0.9" opacity="0.5"/><circle cx="107" cy="181" r="2.5" opacity="0.9"/><circle cx="244" cy="254" r="0.9" opacity="0.5"/><circle cx="381" cy="327" r="0.9" opacity="0.5"/><circle cx="518" cy="400" r="0.9" opacity="0.5"/><circle cx="655" cy="23" r="0.9" opacity="0.5"/><circle cx="792" cy="96" r="0.9" opacity="0.9"/><circle cx="929" cy="169" r="0.9" opacity="0.5"/><circle cx="1066" cy="242" r="2.5" opacity="0.5"/><circle cx="13" cy="315" r="0.9" opacity="0.5"/><circle cx="150" cy="388" r="0.9" opacity="0.5"/><circle cx="287" cy="11" r="0.9" opacity="0.9"/><circle cx="424" cy="84" r="0.9" opacity="0.5"/><circle cx="561" cy="157" r="0.9" opacity="0.5"/><circle cx="698" cy="230" r="0.9" opacity="0.5"/><circle cx="835" cy="303" r="2.5" opacity="0.5"/><circle cx="972" cy="376" r="0.9" opacity="0.9"/><circle cx="1109" cy="449" r="0.9" opacity="0.5"/><circle cx="56" cy="72" r="0.9" opacity="0.5"/><circle cx="193" cy="145" r="0.9" opacity="0.5"/><circle cx="330" cy="218" r="0.9" opacity="0.5"/></g><path d="M0 540L215 320l190 215M1200 540L980 320 800 535" fill="#272447" stroke="#9e7fa4" stroke-width="8"/><path d="M0 515h1200v65H0" fill="#131733"/><path d="M140 580 280 360h640l148 220Z" fill="#2d2f59" stroke="#e4bc77" stroke-width="13"/><path d="M255 505h700M303 444h604" stroke="#a99ccc" stroke-width="6"/><ellipse cx="599" cy="283" rx="267" ry="260" fill="#fff4be" opacity=".24" filter="url(#light)"/><g filter="url(#shadow)"><ellipse cx="599" cy="280" rx="234" ry="250" fill="#27234a" stroke="#f4ce82" stroke-width="24"/><ellipse cx="599" cy="280" rx="202" ry="216" fill="none" stroke="#a881c9" stroke-width="17"/><ellipse cx="599" cy="280" rx="186" ry="202" fill="url(#glow)" stroke="#fff0a5" stroke-width="9"/><ellipse cx="599" cy="280" rx="154" ry="171" fill="none" stroke="#b6eaff" stroke-width="6" stroke-opacity=".8"/><path d="M599 65v431M395 280h408" stroke="#fce5a4" stroke-width="3" opacity=".53"/><path d="M480 130 715 430M712 123 472 425" stroke="#e2c0ff" stroke-width="3" opacity=".4"/></g><g fill="#fff2a3"><circle cx="599" cy="45" r="7"/><circle cx="710" cy="76.4840301106569" r="7"/><circle cx="791.2576396401454" cy="162.49999999999997" r="7"/><circle cx="821" cy="280" r="7"/><circle cx="791.2576396401454" cy="397.49999999999994" r="7"/><circle cx="710" cy="483.51596988934307" r="7"/><circle cx="599" cy="515" r="7"/><circle cx="488.00000000000006" cy="483.5159698893431" r="7"/><circle cx="406.7423603598547" cy="397.5000000000001" r="7"/><circle cx="377" cy="280.00000000000006" r="7"/><circle cx="406.7423603598546" cy="162.49999999999997" r="7"/><circle cx="487.9999999999999" cy="76.48403011065699" r="7"/></g><g fill="#b69a9a" stroke="#ffe6a9" stroke-width="7"><rect x="136" y="258" width="94" height="292" rx="5"/><rect x="969" y="258" width="94" height="292" rx="5"/><path d="M118 259h130l-34-62h-62ZM950 259h131l-35-62h-61Z"/></g><g fill="#ffecc2"><path d="m155 135 13 32 35 13-35 13-13 31-13-31-35-13 35-13ZM1034 89l9 24 25 9-25 9-9 24-9-24-25-9 25-9Z"/></g><path d="M408 579Q590 515 795 579" stroke="#f1c878" opacity=".32" stroke-width="7" fill="none"/></svg>